<?xml version="1.0" encoding="utf-8"?>
<!-- Generator: Adobe Illustrator 23.0.1, SVG Export Plug-In . SVG Version: 6.00 Build 0)  -->
<svg version="1.1" id="レイヤー_1" xmlns="http://www.w3.org/2000/svg" xmlns:xlink="http://www.w3.org/1999/xlink" x="0px"
	 y="0px" viewBox="0 0 127.56 127.56" style="enable-background:new 0 0 127.56 127.56;" xml:space="preserve">
<style type="text/css">
	.st0{fill:#FFFFFF;}
	.st1{fill:#231815;}
	.st2{fill:#14FFD4;}
	.st3{fill:#FFFEF3;}
</style>
<g>
	<path class="st2" d="M35.61,80.96H23.92V69.27h11.69V80.96z M24.27,80.61h10.99V69.62H24.27V80.61z"/>
	<path class="st2" d="M103.64,103.64H91.95V91.95h11.69V103.64z M92.3,103.29h10.99V92.3H92.3V103.29z"/>
	<path class="st2" d="M46.95,69.62H35.26V57.94h11.69V69.62z M35.61,69.27H46.6V58.29H35.61V69.27z"/>
	<path class="st2" d="M58.29,58.29H46.6V46.6h11.69V58.29z M46.95,57.94h10.99V46.95H46.95V57.94z"/>
	<path class="st2" d="M69.63,46.95H57.94V35.26h11.69V46.95z M58.29,46.6h10.99V35.61H58.29V46.6z"/>
	<path class="st2" d="M92.3,69.62H57.94V57.93H92.3V69.62z M58.29,69.27h33.67V58.28H58.29V69.27z"/>
	<path class="st2" d="M58.29,35.61H23.92V23.92h34.37V35.61z M24.27,35.26h33.67V24.27H24.27V35.26z"/>
	<path class="st2" d="M92.3,35.61H69.27V23.92H92.3V35.61z M69.62,35.26h22.33V24.27H69.62V35.26z"/>
	<path class="st2" d="M103.64,58.29H91.95V35.26h11.69V58.29z M92.3,57.94h10.99V35.61H92.3V57.94z"/>
	<path class="st2" d="M92.3,92.3H35.26V80.61H92.3V92.3z M35.61,91.95h56.34V80.96H35.61V91.95z"/>
</g>
</svg>
