<?xml version="1.0" encoding="utf-8"?>
<!-- Generator: Adobe Illustrator 23.0.1, SVG Export Plug-In . SVG Version: 6.00 Build 0)  -->
<svg version="1.1" id="レイヤー_1" xmlns="http://www.w3.org/2000/svg" xmlns:xlink="http://www.w3.org/1999/xlink" x="0px"
	 y="0px" viewBox="0 0 127.56 28.35" style="enable-background:new 0 0 127.56 28.35;" xml:space="preserve">
<style type="text/css">
	.st0{fill:#FFFFFF;}
	.st1{fill:#231815;}
	.st2{fill:#14FFD4;}
	.st3{fill:#FFFEF3;}
</style>
<g>
	<path class="st0" d="M5.87,10.97l0.05,1.58H5.71c-0.04-0.35-0.14-0.63-0.29-0.86c-0.15-0.23-0.31-0.37-0.47-0.42
		c-0.17-0.06-0.44-0.08-0.84-0.08H2.87v2.69h0.59c0.38,0,0.64-0.06,0.76-0.19c0.13-0.13,0.19-0.39,0.19-0.78h0.23v2.23H4.41
		c0-0.27-0.03-0.48-0.08-0.64c-0.05-0.16-0.13-0.26-0.24-0.32c-0.11-0.06-0.32-0.09-0.63-0.09H2.87v1.57c0,0.5,0.01,0.82,0.04,0.98
		c0.03,0.15,0.09,0.27,0.19,0.34c0.1,0.07,0.3,0.11,0.59,0.11h0.21v0.21H0.95v-0.21h0.2c0.27,0,0.46-0.03,0.56-0.1
		c0.1-0.07,0.17-0.17,0.2-0.32c0.03-0.14,0.04-0.48,0.04-1.01v-3.11c0-0.5-0.01-0.83-0.04-0.98c-0.03-0.15-0.09-0.25-0.19-0.3
		c-0.09-0.06-0.3-0.08-0.62-0.08H0.99v-0.21H5.87z"/>
	<path class="st0" d="M11.56,13.48v2.51c0,0.42,0.01,0.68,0.02,0.78c0.01,0.11,0.06,0.19,0.14,0.24c0.08,0.05,0.22,0.08,0.43,0.08
		v0.21c-0.47,0.01-0.82,0.06-1.04,0.15h-0.06c-0.1-0.17-0.15-0.47-0.16-0.89c-0.19,0.3-0.41,0.52-0.65,0.67
		c-0.24,0.15-0.51,0.22-0.81,0.22c-0.25,0-0.48-0.06-0.68-0.18c-0.2-0.12-0.33-0.26-0.4-0.43c-0.07-0.17-0.11-0.42-0.11-0.76v-1.3
		c0-0.44-0.01-0.71-0.02-0.81c-0.02-0.1-0.06-0.17-0.15-0.22c-0.08-0.05-0.23-0.07-0.46-0.07v-0.21h1.3v2.65
		c0,0.26,0.02,0.45,0.05,0.57c0.03,0.12,0.11,0.22,0.24,0.31c0.13,0.09,0.28,0.13,0.44,0.13c0.24,0,0.47-0.08,0.69-0.24
		c0.22-0.16,0.37-0.32,0.45-0.5c0.08-0.18,0.12-0.43,0.12-0.75v-0.86c0-0.42,0-0.67-0.01-0.76c-0.01-0.09-0.05-0.17-0.12-0.24
		c-0.07-0.07-0.22-0.1-0.44-0.1h-0.1v-0.21H11.56z"/>
	<path class="st0" d="M16.45,13.7h-1.15v2.31c0,0.35,0.02,0.59,0.05,0.72c0.03,0.12,0.1,0.22,0.2,0.3c0.1,0.07,0.21,0.11,0.32,0.11
		c0.22,0,0.42-0.13,0.58-0.38l0.15,0.09c-0.1,0.21-0.24,0.36-0.43,0.46c-0.19,0.1-0.38,0.16-0.57,0.16c-0.22,0-0.42-0.07-0.59-0.2
		c-0.17-0.13-0.28-0.29-0.32-0.46c-0.04-0.18-0.06-0.49-0.06-0.93V13.7h-0.56v-0.21c0.25-0.01,0.48-0.11,0.69-0.32
		c0.2-0.21,0.33-0.5,0.39-0.88h0.15v1.2h1.15V13.7z"/>
	<path class="st0" d="M22.2,13.48v2.51c0,0.42,0.01,0.68,0.02,0.78c0.01,0.11,0.06,0.19,0.14,0.24c0.08,0.05,0.22,0.08,0.43,0.08
		v0.21c-0.47,0.01-0.82,0.06-1.04,0.15h-0.06c-0.1-0.17-0.15-0.47-0.16-0.89c-0.19,0.3-0.41,0.52-0.65,0.67
		c-0.24,0.15-0.51,0.22-0.81,0.22c-0.25,0-0.48-0.06-0.68-0.18c-0.2-0.12-0.33-0.26-0.4-0.43c-0.07-0.17-0.11-0.42-0.11-0.76v-1.3
		c0-0.44-0.01-0.71-0.02-0.81c-0.02-0.1-0.06-0.17-0.15-0.22c-0.08-0.05-0.23-0.07-0.46-0.07v-0.21h1.3v2.65
		c0,0.26,0.02,0.45,0.05,0.57c0.03,0.12,0.11,0.22,0.24,0.31c0.13,0.09,0.28,0.13,0.44,0.13c0.24,0,0.47-0.08,0.69-0.24
		c0.22-0.16,0.37-0.32,0.45-0.5c0.08-0.18,0.12-0.43,0.12-0.75v-0.86c0-0.42,0-0.67-0.01-0.76c-0.01-0.09-0.05-0.17-0.12-0.24
		c-0.07-0.07-0.22-0.1-0.44-0.1h-0.1v-0.21H22.2z"/>
	<path class="st0" d="M26.06,14.3c0.11-0.28,0.28-0.51,0.52-0.7c0.24-0.19,0.47-0.28,0.7-0.28c0.2,0,0.37,0.06,0.49,0.19
		c0.12,0.13,0.18,0.26,0.18,0.39c0,0.09-0.03,0.17-0.09,0.23c-0.06,0.07-0.13,0.1-0.22,0.1c-0.16,0-0.27-0.12-0.36-0.35
		c-0.06-0.16-0.14-0.23-0.25-0.23c-0.13,0-0.29,0.09-0.48,0.27c-0.19,0.18-0.31,0.37-0.36,0.57c-0.05,0.2-0.08,0.47-0.08,0.81V16
		c0,0.41,0.01,0.66,0.02,0.77c0.01,0.11,0.06,0.19,0.13,0.24c0.08,0.06,0.22,0.08,0.42,0.08h0.13v0.21h-2.03v-0.21h0.1
		c0.19,0,0.32-0.03,0.4-0.08c0.08-0.05,0.13-0.12,0.14-0.22c0.02-0.09,0.02-0.36,0.02-0.8v-1.08c0-0.41-0.01-0.67-0.02-0.77
		c-0.01-0.1-0.06-0.18-0.13-0.24c-0.08-0.06-0.22-0.09-0.42-0.09h-0.1V13.6c0.29-0.03,0.68-0.13,1.15-0.28
		C26,13.57,26.05,13.9,26.06,14.3z"/>
	<path class="st0" d="M33.21,14.78h-2.67c-0.01,0.18-0.02,0.32-0.02,0.41c0,0.67,0.11,1.18,0.32,1.52c0.21,0.34,0.52,0.51,0.94,0.51
		c0.57,0,0.97-0.25,1.2-0.76h0.22c-0.1,0.32-0.3,0.57-0.59,0.75c-0.3,0.18-0.62,0.27-0.97,0.27c-0.32,0-0.63-0.08-0.92-0.25
		c-0.29-0.16-0.52-0.39-0.71-0.69c-0.18-0.3-0.28-0.66-0.28-1.09c0-0.6,0.18-1.11,0.53-1.51c0.35-0.4,0.8-0.6,1.33-0.6
		c0.5,0,0.89,0.15,1.16,0.46C33.05,14.09,33.2,14.42,33.21,14.78z M32.39,14.59c0.01-0.07,0.01-0.14,0.01-0.19
		c0-0.27-0.08-0.49-0.24-0.64c-0.16-0.15-0.36-0.23-0.59-0.23c-0.57,0-0.91,0.35-1.01,1.06H32.39z"/>
	<path class="st0" d="M45.79,17.31h-1.71c-0.3-0.21-0.76-0.77-1.39-1.66c-0.2-0.29-0.41-0.56-0.62-0.82
		c-0.21-0.26-0.36-0.42-0.44-0.48c-0.08-0.06-0.21-0.09-0.38-0.09H41v1.41c0,0.5,0.01,0.82,0.03,0.98c0.02,0.15,0.09,0.27,0.19,0.34
		c0.1,0.07,0.29,0.11,0.58,0.11h0.3v0.21h-3.03v-0.21h0.21c0.27,0,0.46-0.03,0.56-0.1c0.1-0.07,0.17-0.17,0.2-0.32
		c0.03-0.14,0.04-0.48,0.04-1.01v-3.11c0-0.5-0.01-0.83-0.04-0.98c-0.03-0.15-0.09-0.25-0.19-0.3c-0.1-0.06-0.31-0.08-0.63-0.08
		h-0.11v-0.21l0.91-0.05c0.6-0.03,1.08-0.04,1.44-0.04c0.6,0,1.1,0.06,1.47,0.17c0.38,0.11,0.68,0.3,0.92,0.55
		c0.23,0.26,0.35,0.56,0.35,0.92c0,0.41-0.15,0.77-0.46,1.06c-0.31,0.29-0.75,0.47-1.35,0.55c0.26,0.13,0.69,0.59,1.28,1.38
		c0.48,0.64,0.86,1.07,1.13,1.27c0.27,0.2,0.6,0.31,0.97,0.32V17.31z M41,14.04c0.23-0.01,0.47-0.02,0.72-0.03
		c0.25-0.01,0.47-0.05,0.65-0.1c0.18-0.06,0.33-0.14,0.45-0.25c0.11-0.11,0.2-0.25,0.27-0.42c0.07-0.17,0.1-0.39,0.1-0.64
		c0-0.45-0.11-0.8-0.33-1.07c-0.22-0.27-0.71-0.4-1.46-0.4c-0.12,0-0.25,0.01-0.4,0.02V14.04z"/>
	<path class="st0" d="M51.07,14.78H48.4c-0.01,0.18-0.02,0.32-0.02,0.41c0,0.67,0.11,1.18,0.32,1.52c0.21,0.34,0.52,0.51,0.94,0.51
		c0.57,0,0.97-0.25,1.21-0.76h0.22c-0.1,0.32-0.3,0.57-0.59,0.75c-0.3,0.18-0.62,0.27-0.97,0.27c-0.32,0-0.63-0.08-0.92-0.25
		c-0.29-0.16-0.52-0.39-0.71-0.69c-0.18-0.3-0.28-0.66-0.28-1.09c0-0.6,0.18-1.11,0.53-1.51c0.35-0.4,0.8-0.6,1.33-0.6
		c0.5,0,0.89,0.15,1.16,0.46C50.91,14.09,51.05,14.42,51.07,14.78z M50.25,14.59c0.01-0.07,0.01-0.14,0.01-0.19
		c0-0.27-0.08-0.49-0.24-0.64c-0.16-0.15-0.36-0.23-0.59-0.23c-0.57,0-0.91,0.35-1.01,1.06H50.25z"/>
	<path class="st0" d="M53.25,17.43v-1.26h0.18c0.21,0.73,0.59,1.09,1.13,1.09c0.24,0,0.41-0.07,0.53-0.21
		c0.12-0.14,0.17-0.3,0.17-0.47c0-0.2-0.06-0.36-0.19-0.49c-0.13-0.13-0.38-0.28-0.74-0.46c-0.39-0.19-0.66-0.38-0.83-0.56
		c-0.17-0.18-0.25-0.4-0.25-0.67c0-0.25,0.09-0.49,0.27-0.72c0.18-0.23,0.43-0.34,0.76-0.34c0.33,0,0.61,0.14,0.83,0.41
		c0.05-0.05,0.11-0.16,0.18-0.34h0.17v1.18h-0.17c-0.06-0.28-0.18-0.53-0.36-0.73c-0.18-0.2-0.39-0.31-0.63-0.31
		c-0.19,0-0.34,0.06-0.45,0.17c-0.12,0.12-0.17,0.25-0.17,0.4c0,0.17,0.06,0.31,0.19,0.43c0.12,0.12,0.36,0.27,0.71,0.43
		c0.53,0.24,0.85,0.47,0.97,0.7c0.12,0.23,0.18,0.45,0.18,0.66c0,0.33-0.11,0.6-0.33,0.81c-0.22,0.21-0.5,0.31-0.83,0.31
		c-0.35,0-0.67-0.15-0.94-0.43c-0.08,0.09-0.15,0.23-0.21,0.4H53.25z"/>
	<path class="st0" d="M61.31,14.78h-2.67c-0.01,0.18-0.02,0.32-0.02,0.41c0,0.67,0.11,1.18,0.32,1.52c0.21,0.34,0.52,0.51,0.94,0.51
		c0.57,0,0.97-0.25,1.21-0.76h0.22c-0.1,0.32-0.3,0.57-0.59,0.75c-0.3,0.18-0.62,0.27-0.97,0.27c-0.32,0-0.63-0.08-0.92-0.25
		c-0.29-0.16-0.52-0.39-0.71-0.69c-0.18-0.3-0.28-0.66-0.28-1.09c0-0.6,0.18-1.11,0.53-1.51c0.35-0.4,0.8-0.6,1.33-0.6
		c0.5,0,0.89,0.15,1.16,0.46C61.15,14.09,61.3,14.42,61.31,14.78z M60.5,14.59c0.01-0.07,0.01-0.14,0.01-0.19
		c0-0.27-0.08-0.49-0.24-0.64c-0.16-0.15-0.36-0.23-0.59-0.23c-0.57,0-0.91,0.35-1.01,1.06H60.5z"/>
	<path class="st0" d="M64.71,14.3c0.11-0.28,0.28-0.51,0.52-0.7c0.24-0.19,0.47-0.28,0.7-0.28c0.21,0,0.37,0.06,0.49,0.19
		c0.12,0.13,0.18,0.26,0.18,0.39c0,0.09-0.03,0.17-0.09,0.23c-0.06,0.07-0.13,0.1-0.22,0.1c-0.16,0-0.27-0.12-0.36-0.35
		c-0.06-0.16-0.14-0.23-0.25-0.23c-0.13,0-0.29,0.09-0.48,0.27c-0.19,0.18-0.31,0.37-0.36,0.57c-0.05,0.2-0.08,0.47-0.08,0.81V16
		c0,0.41,0.01,0.66,0.02,0.77c0.01,0.11,0.06,0.19,0.13,0.24c0.08,0.06,0.22,0.08,0.42,0.08h0.13v0.21h-2.03v-0.21h0.1
		c0.19,0,0.32-0.03,0.4-0.08c0.08-0.05,0.13-0.12,0.14-0.22c0.02-0.09,0.02-0.36,0.02-0.8v-1.08c0-0.41-0.01-0.67-0.02-0.77
		c-0.01-0.1-0.06-0.18-0.13-0.24c-0.08-0.06-0.22-0.09-0.42-0.09h-0.1V13.6c0.29-0.03,0.68-0.13,1.15-0.28
		C64.65,13.57,64.7,13.9,64.71,14.3z"/>
	<path class="st0" d="M71.7,16.37h0.21c-0.21,0.73-0.74,1.09-1.59,1.09c-0.55,0-1-0.19-1.38-0.56c-0.37-0.37-0.56-0.86-0.56-1.47
		c0-0.63,0.2-1.13,0.6-1.52c0.4-0.39,0.88-0.58,1.42-0.58c0.33,0,0.63,0.07,0.91,0.22c0.28,0.14,0.42,0.32,0.42,0.53
		c0,0.08-0.03,0.15-0.08,0.22c-0.05,0.07-0.13,0.1-0.22,0.1c-0.21,0-0.33-0.12-0.38-0.36c-0.04-0.18-0.09-0.31-0.17-0.38
		c-0.08-0.07-0.24-0.11-0.47-0.11c-0.42,0-0.73,0.15-0.94,0.43c-0.21,0.29-0.32,0.73-0.32,1.31c0,0.6,0.11,1.07,0.34,1.41
		c0.23,0.34,0.57,0.51,1.03,0.51C71.13,17.21,71.53,16.93,71.7,16.37z"/>
	<path class="st0" d="M75.12,14.11c0.19-0.26,0.4-0.46,0.63-0.59c0.23-0.13,0.49-0.2,0.76-0.2c0.31,0,0.58,0.07,0.78,0.2
		c0.21,0.13,0.34,0.29,0.4,0.48c0.06,0.19,0.09,0.5,0.09,0.93V16c0,0.45,0.01,0.72,0.03,0.82c0.02,0.1,0.07,0.17,0.15,0.21
		c0.08,0.05,0.24,0.07,0.47,0.07v0.21h-1.98v-0.21h0.09c0.23,0,0.38-0.03,0.44-0.1c0.07-0.07,0.11-0.14,0.12-0.23
		c0.01-0.09,0.02-0.34,0.02-0.77v-1.15c0-0.32-0.02-0.55-0.06-0.71c-0.04-0.15-0.12-0.28-0.26-0.38c-0.14-0.1-0.31-0.15-0.52-0.15
		c-0.24,0-0.46,0.07-0.65,0.21c-0.19,0.14-0.36,0.35-0.51,0.64V16c0,0.43,0.01,0.69,0.02,0.79c0.01,0.1,0.06,0.18,0.14,0.23
		c0.08,0.05,0.23,0.08,0.44,0.08v0.21h-1.94v-0.21h0.1c0.22,0,0.37-0.03,0.44-0.1c0.07-0.06,0.11-0.14,0.12-0.23
		c0.01-0.09,0.02-0.35,0.02-0.77v-3.81c0-0.39-0.04-0.63-0.11-0.73c-0.07-0.1-0.25-0.15-0.53-0.15v-0.21c0.48,0,0.88-0.07,1.21-0.2
		h0.1V14.11z"/>
	<path class="st0" d="M84.15,11.19v-0.21h2.9v0.21h-0.13c-0.31,0-0.52,0.03-0.61,0.08c-0.1,0.05-0.16,0.15-0.19,0.29
		c-0.03,0.14-0.05,0.47-0.05,1v3.11c0,0.5,0.01,0.82,0.04,0.98c0.02,0.15,0.09,0.27,0.19,0.34c0.1,0.07,0.29,0.11,0.58,0.11h0.19
		v0.21h-2.9v-0.21h0.19c0.27,0,0.46-0.03,0.56-0.1c0.1-0.07,0.17-0.17,0.2-0.32c0.03-0.14,0.04-0.48,0.04-1.01v-3.11
		c0-0.5-0.01-0.83-0.04-0.98c-0.03-0.15-0.09-0.25-0.19-0.3c-0.1-0.06-0.3-0.08-0.63-0.08H84.15z"/>
	<path class="st0" d="M90.04,13.33h0.13c0.07,0.19,0.11,0.46,0.12,0.79c0.22-0.26,0.46-0.46,0.71-0.59c0.25-0.13,0.5-0.2,0.77-0.2
		c0.31,0,0.55,0.06,0.75,0.19c0.19,0.13,0.32,0.28,0.38,0.47c0.06,0.19,0.08,0.46,0.08,0.81V16c0,0.44,0.01,0.71,0.02,0.81
		c0.02,0.1,0.06,0.17,0.15,0.22c0.08,0.05,0.23,0.07,0.45,0.07v0.21h-1.96v-0.21h0.09c0.22,0,0.37-0.03,0.44-0.1
		c0.07-0.07,0.11-0.14,0.12-0.23c0.01-0.09,0.01-0.34,0.01-0.77v-1.23c0-0.3-0.01-0.52-0.04-0.65c-0.03-0.13-0.11-0.24-0.24-0.34
		c-0.13-0.1-0.29-0.15-0.49-0.15c-0.23,0-0.44,0.07-0.65,0.2c-0.21,0.14-0.4,0.34-0.59,0.61V16c0,0.44,0.01,0.71,0.03,0.81
		c0.02,0.1,0.07,0.17,0.15,0.22c0.08,0.05,0.24,0.07,0.46,0.07v0.21h-1.93v-0.21c0.21,0,0.36-0.02,0.45-0.07
		c0.08-0.04,0.14-0.11,0.16-0.2c0.02-0.09,0.03-0.37,0.03-0.83v-1.14c0-0.45-0.01-0.72-0.03-0.81c-0.02-0.09-0.07-0.17-0.15-0.21
		c-0.08-0.05-0.24-0.07-0.46-0.07v-0.21C89.33,13.51,89.69,13.43,90.04,13.33z"/>
	<path class="st0" d="M95.63,17.43v-1.26h0.18c0.21,0.73,0.59,1.09,1.13,1.09c0.24,0,0.41-0.07,0.53-0.21
		c0.12-0.14,0.17-0.3,0.17-0.47c0-0.2-0.06-0.36-0.19-0.49c-0.13-0.13-0.38-0.28-0.74-0.46c-0.39-0.19-0.66-0.38-0.83-0.56
		c-0.17-0.18-0.25-0.4-0.25-0.67c0-0.25,0.09-0.49,0.27-0.72c0.18-0.23,0.43-0.34,0.76-0.34c0.33,0,0.61,0.14,0.83,0.41
		c0.05-0.05,0.11-0.16,0.18-0.34h0.17v1.18h-0.17c-0.06-0.28-0.18-0.53-0.36-0.73c-0.18-0.2-0.39-0.31-0.63-0.31
		c-0.19,0-0.34,0.06-0.45,0.17c-0.12,0.12-0.17,0.25-0.17,0.4c0,0.17,0.06,0.31,0.19,0.43c0.12,0.12,0.36,0.27,0.71,0.43
		c0.53,0.24,0.85,0.47,0.97,0.7c0.12,0.23,0.18,0.45,0.18,0.66c0,0.33-0.11,0.6-0.33,0.81c-0.22,0.21-0.5,0.31-0.83,0.31
		c-0.35,0-0.66-0.15-0.94-0.43c-0.08,0.09-0.15,0.23-0.21,0.4H95.63z"/>
	<path class="st0" d="M102.49,13.7h-1.15v2.31c0,0.35,0.02,0.59,0.05,0.72c0.03,0.12,0.1,0.22,0.2,0.3c0.1,0.07,0.21,0.11,0.32,0.11
		c0.22,0,0.42-0.13,0.58-0.38l0.15,0.09c-0.1,0.21-0.24,0.36-0.43,0.46c-0.19,0.1-0.38,0.16-0.57,0.16c-0.22,0-0.42-0.07-0.59-0.2
		c-0.17-0.13-0.28-0.29-0.32-0.46c-0.04-0.18-0.06-0.49-0.06-0.93V13.7h-0.56v-0.21c0.25-0.01,0.48-0.11,0.69-0.32
		c0.2-0.21,0.33-0.5,0.39-0.88h0.15v1.2h1.15V13.7z"/>
	<path class="st0" d="M105.63,13.33V16c0,0.41,0.01,0.66,0.02,0.77c0.01,0.11,0.06,0.19,0.13,0.24c0.08,0.06,0.22,0.08,0.42,0.08
		h0.1v0.21h-2.06v-0.21h0.16c0.22,0,0.37-0.03,0.43-0.1c0.07-0.06,0.11-0.14,0.12-0.23c0.01-0.09,0.02-0.35,0.02-0.77v-1.16
		c0-0.45-0.02-0.72-0.06-0.82c-0.04-0.1-0.1-0.16-0.17-0.19c-0.07-0.02-0.19-0.04-0.37-0.04h-0.13v-0.21
		c0.55-0.06,0.98-0.14,1.29-0.25H105.63z M104.73,11.38c0-0.13,0.05-0.25,0.14-0.35c0.09-0.1,0.21-0.15,0.34-0.15
		s0.25,0.05,0.34,0.15c0.09,0.1,0.14,0.21,0.14,0.35c0,0.14-0.05,0.25-0.14,0.35c-0.09,0.1-0.21,0.14-0.34,0.14
		s-0.25-0.05-0.34-0.14C104.78,11.63,104.73,11.51,104.73,11.38z"/>
	<path class="st0" d="M110.54,13.7h-1.15v2.31c0,0.35,0.02,0.59,0.05,0.72c0.03,0.12,0.1,0.22,0.2,0.3c0.1,0.07,0.21,0.11,0.32,0.11
		c0.22,0,0.42-0.13,0.58-0.38l0.15,0.09c-0.1,0.21-0.24,0.36-0.43,0.46c-0.19,0.1-0.38,0.16-0.57,0.16c-0.22,0-0.42-0.07-0.59-0.2
		c-0.17-0.13-0.28-0.29-0.32-0.46c-0.04-0.18-0.06-0.49-0.06-0.93V13.7h-0.56v-0.21c0.25-0.01,0.48-0.11,0.69-0.32
		c0.2-0.21,0.33-0.5,0.39-0.88h0.15v1.2h1.15V13.7z"/>
	<path class="st0" d="M116.3,13.48v2.51c0,0.42,0.01,0.68,0.02,0.78c0.01,0.11,0.06,0.19,0.14,0.24c0.08,0.05,0.22,0.08,0.43,0.08
		v0.21c-0.47,0.01-0.82,0.06-1.04,0.15h-0.06c-0.1-0.17-0.15-0.47-0.16-0.89c-0.19,0.3-0.41,0.52-0.65,0.67
		c-0.24,0.15-0.51,0.22-0.81,0.22c-0.25,0-0.48-0.06-0.68-0.18c-0.2-0.12-0.33-0.26-0.4-0.43c-0.07-0.17-0.11-0.42-0.11-0.76v-1.3
		c0-0.44-0.01-0.71-0.02-0.81c-0.02-0.1-0.06-0.17-0.15-0.22c-0.08-0.05-0.23-0.07-0.46-0.07v-0.21h1.3v2.65
		c0,0.26,0.02,0.45,0.05,0.57c0.03,0.12,0.11,0.22,0.24,0.31c0.13,0.09,0.28,0.13,0.44,0.13c0.24,0,0.47-0.08,0.69-0.24
		c0.22-0.16,0.37-0.32,0.45-0.5c0.08-0.18,0.12-0.43,0.12-0.75v-0.86c0-0.42,0-0.67-0.01-0.76c-0.01-0.09-0.05-0.17-0.12-0.24
		c-0.07-0.07-0.22-0.1-0.44-0.1h-0.1v-0.21H116.3z"/>
	<path class="st0" d="M121.19,13.7h-1.15v2.31c0,0.35,0.02,0.59,0.05,0.72c0.03,0.12,0.1,0.22,0.2,0.3c0.1,0.07,0.21,0.11,0.32,0.11
		c0.22,0,0.42-0.13,0.58-0.38l0.15,0.09c-0.1,0.21-0.24,0.36-0.43,0.46c-0.19,0.1-0.38,0.16-0.57,0.16c-0.22,0-0.42-0.07-0.59-0.2
		c-0.17-0.13-0.28-0.29-0.32-0.46c-0.04-0.18-0.06-0.49-0.06-0.93V13.7h-0.56v-0.21c0.25-0.01,0.48-0.11,0.69-0.32
		c0.2-0.21,0.33-0.5,0.39-0.88h0.15v1.2h1.15V13.7z"/>
	<path class="st0" d="M126.61,14.78h-2.67c-0.01,0.18-0.02,0.32-0.02,0.41c0,0.67,0.11,1.18,0.32,1.52
		c0.21,0.34,0.52,0.51,0.94,0.51c0.57,0,0.97-0.25,1.21-0.76h0.22c-0.1,0.32-0.3,0.57-0.59,0.75c-0.3,0.18-0.62,0.27-0.97,0.27
		c-0.32,0-0.63-0.08-0.92-0.25c-0.29-0.16-0.52-0.39-0.71-0.69c-0.18-0.3-0.28-0.66-0.28-1.09c0-0.6,0.18-1.11,0.53-1.51
		c0.35-0.4,0.8-0.6,1.33-0.6c0.5,0,0.89,0.15,1.16,0.46C126.45,14.09,126.59,14.42,126.61,14.78z M125.79,14.59
		c0.01-0.07,0.01-0.14,0.01-0.19c0-0.27-0.08-0.49-0.24-0.64c-0.16-0.15-0.36-0.23-0.59-0.23c-0.57,0-0.91,0.35-1.01,1.06H125.79z"
		/>
</g>
</svg>
